<?xml version="1.0" encoding="utf-8"?>
<!-- Generator: Adobe Illustrator 25.2.3, SVG Export Plug-In . SVG Version: 6.00 Build 0)  -->
<svg version="1.1" id="Layer_1" xmlns="http://www.w3.org/2000/svg" xmlns:xlink="http://www.w3.org/1999/xlink" x="0px" y="0px"
	 viewBox="0 0 24 24" style="enable-background:new 0 0 24 24;" xml:space="preserve">
<style type="text/css">
	.st0{fill:#FFFFFF;fill-opacity:0;}
	.st1{fill:#FFFFFF;}
</style>
<g>
	<g>
		<rect y="0" class="st0" width="24" height="24"/>
		<path class="st1" d="M9.3,21c-1.7,0-3.3-0.7-4.4-1.9c-2.4-2.3-2.5-6.1-0.2-8.5c0,0,0,0,0,0L12,3.2C12.8,2.4,13.9,2,15,2
			c1.2,0,2.4,0.5,3.2,1.3C19.9,5,20,7.7,18.3,9.5l-7.4,7.4c-0.5,0.5-1.1,0.8-1.8,0.8c-0.7,0-1.4-0.3-1.9-0.8c-1.1-1-1.1-2.7-0.1-3.8
			l6.8-6.9C14.4,5.9,15,6,15.3,6.5c0.2,0.3,0.2,0.8,0,1.1l-6.8,6.9c-0.2,0.3-0.2,0.7,0.1,0.9c0.1,0.1,0.3,0.2,0.5,0.2
			c0.1,0,0.3-0.1,0.4-0.2l7.4-7.4c0.9-1,0.8-2.4-0.1-3.3c-0.9-0.9-2.3-1-3.3-0.2L6.1,12c-1.5,1.6-1.4,4.1,0.2,5.7c0,0,0,0,0,0
			c0.8,0.8,1.9,1.3,3,1.3c1,0,1.9-0.4,2.6-1.1l7.4-7.4c0.4-0.4,1-0.4,1.4,0c0.4,0.4,0.4,1,0,1.4l-7.4,7.4C12.3,20.4,10.8,21,9.3,21z
			"/>
	</g>
</g>
</svg>
