<svg id="Layer_2" data-name="Layer 2" xmlns="http://www.w3.org/2000/svg" viewBox="0 0 23.92 17.56"><defs><style>.cls-1{fill:#ff6482;}.cls-2,.cls-3,.cls-4{fill:none;stroke:#ff6482;stroke-linecap:round;stroke-linejoin:round;stroke-width:2px;}.cls-3{stroke-dasharray:1.88 2.35;}.cls-4{stroke-dasharray:2 2.49;}</style></defs><circle class="cls-1" cx="19.34" cy="4.59" r="4.59"/><path class="cls-2" d="M17.43,9l-.82.57" transform="translate(-0.08 -2.83)"/><path class="cls-3" d="M14.78,11a12.91,12.91,0,0,0-4,6" transform="translate(-0.08 -2.83)"/><path class="cls-2" d="M10.53,18.16a8.26,8.26,0,0,0-.06,1c0-.35-.06-.68-.11-1" transform="translate(-0.08 -2.83)"/><path class="cls-4" d="M9.75,15.75c-1.06-2.63-2.93-3.05-4-3.05-1.23,0-3.6.42-4.43,4.45" transform="translate(-0.08 -2.83)"/><path class="cls-2" d="M1.15,18.39c0,.31-.06.65-.07,1" transform="translate(-0.08 -2.83)"/></svg>