<?xml version="1.0" encoding="utf-8"?>
<!-- Generator: Adobe Illustrator 25.2.3, SVG Export Plug-In . SVG Version: 6.00 Build 0)  -->
<svg version="1.1" id="Layer_1" xmlns="http://www.w3.org/2000/svg" xmlns:xlink="http://www.w3.org/1999/xlink" x="0px" y="0px"
	 viewBox="0 0 24 24" style="enable-background:new 0 0 24 24;" xml:space="preserve">
<style type="text/css">
	.st0{fill:#FF6482;fill-opacity:0;}
	.st1{fill:#FF6482;}
</style>
<g>
	<g>
		<rect y="0" class="st0" width="24" height="24"/>
		<path class="st1" d="M7.1,12.5c-1.8,0.4-3.1,2-3.1,3.9v3.1C4,19.8,4.3,20,4.5,20l0,0l3.2-0.1c1.5,0,2.8-0.9,3.4-2.2
			c0.9-1.8,0.2-4-1.6-4.9C8.8,12.5,7.9,12.4,7.1,12.5z"/>
		<path class="st1" d="M19.3,4.5c-0.9-0.7-2.1-0.6-2.9,0.2L10,11.1c-0.2,0.2-0.2,0.5,0,0.7l2.2,2.3c0.2,0.2,0.5,0.2,0.7,0l6.5-6.5
			c0.4-0.5,0.6-1,0.6-1.5C20,5.4,19.7,4.8,19.3,4.5z"/>
	</g>
</g>
</svg>
