<?xml version="1.0" encoding="utf-8"?>
<!-- Generator: Adobe Illustrator 25.2.3, SVG Export Plug-In . SVG Version: 6.00 Build 0)  -->
<svg version="1.1" id="Layer_1" xmlns="http://www.w3.org/2000/svg" xmlns:xlink="http://www.w3.org/1999/xlink" x="0px" y="0px"
	 viewBox="0 0 24 24" style="enable-background:new 0 0 24 24;" xml:space="preserve">
<style type="text/css">
	.st0{fill:#FF6482;fill-opacity:0;}
	.st1{fill:#FF6482;stroke:#FF6482;stroke-miterlimit:10;}
</style>
<g>
	<g>
		<rect y="0" class="st0" width="24" height="24"/>
		<path class="st1" d="M8.6,5.2C8.2,4.9,7.6,4.9,7.2,5.4c0,0,0,0,0,0l-5,6c-0.3,0.4-0.3,0.9,0,1.3l4.8,6C7.3,18.9,7.5,19,7.8,19
			c0.6,0,1-0.4,1-1c0-0.2-0.1-0.5-0.2-0.6L4.3,12l4.5-5.4C9.1,6.2,9.1,5.6,8.6,5.2C8.6,5.2,8.6,5.2,8.6,5.2z"/>
		<path class="st1" d="M21.8,11.4l-4.8-6c-0.3-0.4-1-0.5-1.4-0.2c0,0,0,0,0,0c-0.4,0.3-0.5,1-0.2,1.4c0,0,0,0,0,0l4.3,5.4l-4.5,5.4
			c-0.4,0.4-0.3,1.1,0.1,1.4c0,0,0,0,0,0c0.2,0.1,0.4,0.2,0.6,0.2c0.3,0,0.6-0.1,0.8-0.4l5-6C22.1,12.3,22.1,11.7,21.8,11.4z"/>
	</g>
</g>
</svg>
