<?xml version="1.0" encoding="utf-8"?>
<!-- Generator: Adobe Illustrator 25.2.3, SVG Export Plug-In . SVG Version: 6.00 Build 0)  -->
<svg version="1.1" id="Layer_1" xmlns="http://www.w3.org/2000/svg" xmlns:xlink="http://www.w3.org/1999/xlink" x="0px" y="0px"
	 viewBox="0 0 24 24" style="enable-background:new 0 0 24 24;" xml:space="preserve">
<style type="text/css">
	.st0{fill:#FF6482;fill-opacity:0;}
	.st1{fill:#FF6482;}
</style>
<g>
	<g>
		<rect y="0" class="st0" width="24" height="24"/>
		<path class="st1" d="M11.2,11.8L3,8.4v7.7c0,0.7,0.4,1.3,1,1.5l7.2,3.4h0.1V11.8z"/>
		<path class="st1" d="M12,10.5l8.5-3.6c-0.1-0.2-0.3-0.3-0.5-0.4l-7.2-3.4c-0.5-0.2-1.1-0.2-1.6,0L4,6.5C3.8,6.6,3.6,6.8,3.5,6.9
			L12,10.5z"/>
		<path class="st1" d="M12.8,11.8V21h0.1l7.2-3.4c0.6-0.3,1-0.9,1-1.5V8.4L12.8,11.8z"/>
	</g>
</g>
</svg>
