<?xml version="1.0" encoding="utf-8"?>
<!-- Generator: Adobe Illustrator 25.2.3, SVG Export Plug-In . SVG Version: 6.00 Build 0)  -->
<svg version="1.1" id="Layer_1" xmlns="http://www.w3.org/2000/svg" xmlns:xlink="http://www.w3.org/1999/xlink" x="0px" y="0px"
	 viewBox="0 0 24 24" style="enable-background:new 0 0 24 24;" xml:space="preserve">
<style type="text/css">
	.st0{fill:#FFFFFF;fill-opacity:0;}
	.st1{fill:#FFFFFF;}
</style>
<g>
	<g>
		<rect class="st0" width="24" height="24"/>
		<path class="st1" d="M19.7,7.3l-4.4-5C15.1,2.1,14.8,2,14.6,2h-8C5.2,2,4,3.1,4,4.5c0,0,0,0,0,0v15C4,20.9,5.2,22,6.6,22
			c0,0,0,0,0,0h10.9c1.4,0,2.5-1.1,2.6-2.5c0,0,0,0,0,0V8C20,7.8,19.9,7.5,19.7,7.3z M9,12h3c0.6,0,1,0.4,1,1s-0.4,1-1,1H9
			c-0.6,0-1-0.4-1-1S8.4,12,9,12z M15,18H9c-0.6,0-1-0.4-1-1s0.4-1,1-1h6c0.6,0,1,0.4,1,1S15.6,18,15,18z M14.7,8
			C14.3,8,14,7.6,14,7.2V4l3.7,4H14.7z"/>
	</g>
</g>
</svg>
