<?xml version="1.0" encoding="utf-8"?>
<!-- Generator: Adobe Illustrator 25.2.3, SVG Export Plug-In . SVG Version: 6.00 Build 0)  -->
<svg version="1.1" id="Layer_1" xmlns="http://www.w3.org/2000/svg" xmlns:xlink="http://www.w3.org/1999/xlink" x="0px" y="0px"
	 viewBox="0 0 24 24" style="enable-background:new 0 0 24 24;" xml:space="preserve">
<style type="text/css">
	.st0{fill:#FFFFFF;fill-opacity:0;}
	.st1{fill:#FFFFFF;}
</style>
<g>
	<g>
		<rect class="st0" width="24" height="24"/>
		<path class="st1" d="M15.1,8.4c-3.2,0-5.8,2.6-5.8,5.8c0,0,0,0,0,0v5.9c0,0.5,0.4,0.9,0.9,0.9h2.1c0.5,0,0.9-0.4,0.9-0.9v-5.9
			c0-1.1,0.9-1.9,1.9-1.9c0.1,0,0.1,0,0.2,0c1,0.1,1.8,1,1.8,2v5.8c0,0.5,0.4,0.9,0.9,0.9h2.1c0.5,0,0.9-0.4,0.9-0.9v-5.9
			C21,11,18.4,8.4,15.1,8.4C15.2,8.4,15.2,8.4,15.1,8.4z"/>
		<path class="st1" d="M3.9,9.3h2.7c0.5,0,0.9,0.4,0.9,0.9v9.9c0,0.5-0.4,0.9-0.9,0.9H3.9C3.4,21,3,20.6,3,20.1v-9.9
			C3,9.7,3.4,9.3,3.9,9.3z"/>
		<circle class="st1" cx="5.3" cy="5.3" r="2.3"/>
	</g>
</g>
</svg>
